<svg xmlns="http://www.w3.org/2000/svg" xmlns:xlink="http://www.w3.org/1999/xlink" width="402.837" height="251.277" viewBox="0 0 402.837 251.277">
  <defs>
    <linearGradient id="linear-gradient" x1="0.5" y1="0.005" x2="0.5" y2="1.351" gradientUnits="objectBoundingBox">
      <stop offset="0" stop-color="#b9b9b9"/>
      <stop offset="1" stop-color="#7c7c7c"/>
    </linearGradient>
    <linearGradient id="linear-gradient-2" x1="0.5" y1="-0.009" x2="0.5" y2="0.902" xlink:href="#linear-gradient"/>
    <linearGradient id="linear-gradient-3" x1="0.5" y1="-7.552" x2="0.5" y2="1.384" xlink:href="#linear-gradient"/>
    <linearGradient id="linear-gradient-5" x1="0.251" y1="0.016" x2="7.283" y2="13.695" xlink:href="#linear-gradient"/>
    <linearGradient id="linear-gradient-6" x1="-0.155" y1="-0.775" x2="6.876" y2="12.904" xlink:href="#linear-gradient"/>
    <linearGradient id="linear-gradient-7" x1="-0.557" y1="-1.555" x2="6.475" y2="12.124" xlink:href="#linear-gradient"/>
    <linearGradient id="linear-gradient-8" x1="-0.166" y1="-0.795" x2="6.865" y2="12.884" xlink:href="#linear-gradient"/>
    <linearGradient id="linear-gradient-9" x1="-0.572" y1="-1.586" x2="6.459" y2="12.093" xlink:href="#linear-gradient"/>
    <linearGradient id="linear-gradient-10" x1="-0.974" y1="-2.367" x2="6.057" y2="11.312" xlink:href="#linear-gradient"/>
    <linearGradient id="linear-gradient-11" x1="-0.583" y1="-1.607" x2="6.448" y2="12.072" xlink:href="#linear-gradient"/>
    <linearGradient id="linear-gradient-12" x1="-0.99" y1="-2.398" x2="6.042" y2="11.281" xlink:href="#linear-gradient"/>
    <linearGradient id="linear-gradient-13" x1="-1.391" y1="-3.179" x2="5.64" y2="10.501" xlink:href="#linear-gradient"/>
    <linearGradient id="linear-gradient-14" x1="-1" y1="-2.419" x2="6.031" y2="11.261" xlink:href="#linear-gradient"/>
    <linearGradient id="linear-gradient-15" x1="-1.407" y1="-3.21" x2="5.624" y2="10.47" xlink:href="#linear-gradient"/>
    <linearGradient id="linear-gradient-16" x1="-1.808" y1="-3.99" x2="5.223" y2="9.689" xlink:href="#linear-gradient"/>
    <linearGradient id="linear-gradient-17" x1="-1.417" y1="-3.23" x2="5.614" y2="10.449" xlink:href="#linear-gradient"/>
    <linearGradient id="linear-gradient-18" x1="-1.824" y1="-4.021" x2="5.207" y2="9.658" xlink:href="#linear-gradient"/>
    <linearGradient id="linear-gradient-19" x1="-2.225" y1="-4.802" x2="4.806" y2="8.877" xlink:href="#linear-gradient"/>
    <linearGradient id="linear-gradient-20" x1="-1.834" y1="-4.042" x2="5.197" y2="9.637" xlink:href="#linear-gradient"/>
    <linearGradient id="linear-gradient-21" x1="-2.241" y1="-4.833" x2="4.79" y2="8.846" xlink:href="#linear-gradient"/>
    <linearGradient id="linear-gradient-22" x1="-2.642" y1="-5.614" x2="4.389" y2="8.066" xlink:href="#linear-gradient"/>
    <linearGradient id="linear-gradient-23" x1="-2.252" y1="-4.853" x2="4.779" y2="8.826" xlink:href="#linear-gradient"/>
    <linearGradient id="linear-gradient-24" x1="-2.658" y1="-5.644" x2="4.373" y2="8.035" xlink:href="#linear-gradient"/>
    <linearGradient id="linear-gradient-25" x1="-3.06" y1="-6.425" x2="3.972" y2="7.254" xlink:href="#linear-gradient"/>
    <linearGradient id="linear-gradient-26" x1="-2.361" y1="-0.145" x2="4.67" y2="1.441" xlink:href="#linear-gradient"/>
  </defs>
  <g id="Group_2640" data-name="Group 2640" transform="translate(-1130.92 -814.571)" opacity="0.416">
    <g id="Group_2639" data-name="Group 2639" transform="translate(1099.875 820.359)">
      <g id="Group_2631" data-name="Group 2631" transform="translate(132.909 71.128)">
        <g id="Group_2630" data-name="Group 2630">
          <rect id="Rectangle_5791" data-name="Rectangle 5791" width="17.716" height="161.571" transform="translate(46.525 3.735)" fill="#dadada"/>
          <rect id="Rectangle_5792" data-name="Rectangle 5792" width="44.06" height="161.571" transform="translate(2.465 3.735)" fill="#eee"/>
          <rect id="Rectangle_5793" data-name="Rectangle 5793" width="19.411" height="4.914" transform="translate(46.525)" fill="#eaeaea"/>
          <rect id="Rectangle_5794" data-name="Rectangle 5794" width="46.525" height="4.914" fill="#f7f7f7"/>
          <path id="Path_9995" data-name="Path 9995" d="M1199.423,820.123v6.847h-17.881v-6.847Zm-17.881,9.278v6.847h17.881V829.4Zm0,9.278v6.847h17.881v-6.847Zm0,9.278V854.8h17.881v-6.847Zm0,9.278v6.847h17.881v-6.847Zm0,9.278v6.847h17.881v-6.847Zm0,9.278v6.847h17.881v-6.847Zm0,9.278v6.847h17.881v-6.847Zm0,9.278v6.847h17.881v-6.847Zm0,9.278v6.847h17.881v-6.847Zm0,9.278v6.847h17.881V912.9Zm0,9.278v6.847h17.881v-6.847Zm0,9.278V938.3h17.881v-6.848Zm0,9.278v6.848h17.881v-6.848Zm0,9.278v6.848h17.881v-6.848Zm0,9.278v6.847h17.881v-6.847Zm0,9.278v6.847h17.881v-6.847Z" transform="translate(-1135.082 -813.43)" fill="#747474"/>
          <path id="Path_9996" data-name="Path 9996" d="M1160.163,820.123v6.847h44.109v-6.847Zm44.109,9.278v6.847h-44.109V829.4Zm0,9.278v6.847h-44.109v-6.847Zm0,9.278V854.8h-44.109v-6.847Zm0,9.278v6.847h-44.109v-6.847Zm0,9.278v6.847h-44.109v-6.847Zm0,9.278v6.847h-44.109v-6.847Zm0,9.278v6.847h-44.109v-6.847Zm0,9.278v6.847h-44.109v-6.847Zm0,9.278v6.847h-44.109v-6.847Zm0,9.278v6.847h-44.109V912.9Zm0,9.278v6.847h-44.109v-6.847Zm0,9.278V938.3h-44.109v-6.848Zm0,9.278v6.848h-44.109v-6.848Zm0,9.278v6.848h-44.109v-6.848Zm0,9.278v6.847h-44.109v-6.847Zm0,9.278v6.847h-44.109v-6.847Z" transform="translate(-1157.811 -813.43)" fill="url(#linear-gradient)"/>
        </g>
      </g>
      <g id="Group_2633" data-name="Group 2633" transform="translate(302.451 57.33)">
        <g id="Group_2632" data-name="Group 2632">
          <rect id="Rectangle_5795" data-name="Rectangle 5795" width="11.352" height="153.012" transform="translate(25.319 22.095)" fill="#dadada"/>
          <rect id="Rectangle_5796" data-name="Rectangle 5796" width="23.691" height="153.012" transform="translate(1.629 22.095)" fill="#f7f7f7"/>
          <path id="Path_9997" data-name="Path 9997" d="M1267.4,830.423h-11.352l-4.987-19.5h2.174Z" transform="translate(-1230.724 -809.411)" fill="#dadada"/>
          <path id="Path_9998" data-name="Path 9998" d="M1265.681,830.423h-23.69l14.165-19.5h4.538Z" transform="translate(-1240.362 -809.411)" fill="#f7f7f7"/>
          <rect id="Rectangle_5797" data-name="Rectangle 5797" width="12.437" height="3.702" transform="translate(25.319 19.281)" fill="#acacac"/>
          <rect id="Rectangle_5798" data-name="Rectangle 5798" width="25.319" height="3.702" transform="translate(0 19.281)" fill="#d0d0d0"/>
          <rect id="Rectangle_5799" data-name="Rectangle 5799" width="12.437" height="3.702" transform="translate(25.319 32.887)" fill="#acacac"/>
          <rect id="Rectangle_5800" data-name="Rectangle 5800" width="25.319" height="3.702" transform="translate(0 32.887)" fill="#d0d0d0"/>
          <rect id="Rectangle_5801" data-name="Rectangle 5801" width="12.437" height="3.702" transform="translate(25.319 90.405)" fill="#acacac"/>
          <rect id="Rectangle_5802" data-name="Rectangle 5802" width="25.319" height="3.702" transform="translate(0 90.405)" fill="#d0d0d0"/>
          <rect id="Rectangle_5803" data-name="Rectangle 5803" width="12.437" height="3.702" transform="translate(25.319 174.016)" fill="#eaeaea"/>
          <rect id="Rectangle_5804" data-name="Rectangle 5804" width="25.319" height="3.702" transform="translate(0 174.016)" fill="#f7f7f7"/>
          <rect id="Rectangle_5805" data-name="Rectangle 5805" width="2.125" height="1.595" transform="translate(20.47)" fill="#acacac"/>
          <rect id="Rectangle_5806" data-name="Rectangle 5806" width="4.76" height="1.595" transform="translate(15.71)" fill="#d0d0d0"/>
        </g>
        <path id="Path_9999" data-name="Path 9999" d="M1245.717,828.672H1242.8v-6.429h2.915Zm5.531-6.429h-2.915v6.429h2.915Zm5.533,0h-2.915v6.429h2.915Zm5.531,0H1259.4v6.429h2.916Zm-16.6,19.736H1242.8V835.55h2.915Zm5.531-6.429h-2.915v6.429h2.915Zm5.533,0h-2.915v6.429h2.915Zm5.531,0H1259.4v6.429h2.916Zm-16.6,15.1H1242.8v-6.429h2.915Zm5.531-6.429h-2.915v6.429h2.915Zm5.533,0h-2.915v6.429h2.915Zm5.531,0H1259.4v6.429h2.916Zm-16.6,15.1H1242.8v-6.429h2.915Zm5.531-6.429h-2.915v6.429h2.915Zm5.533,0h-2.915v6.429h2.915Zm5.531,0H1259.4v6.429h2.916Zm-16.6,15.1H1242.8v-6.429h2.915Zm5.531-6.429h-2.915v6.429h2.915Zm5.533,0h-2.915v6.429h2.915Zm5.531,0H1259.4v6.429h2.916Zm-16.6,15.1H1242.8v-6.431h2.915Zm5.531-6.431h-2.915v6.431h2.915Zm5.533,0h-2.915v6.431h2.915Zm5.531,0H1259.4v6.431h2.916Zm-16.6,15.1H1242.8V878.91h2.915Zm5.531-6.429h-2.915v6.429h2.915Zm5.533,0h-2.915v6.429h2.915Zm5.531,0H1259.4v6.429h2.916Z" transform="translate(-1239.5 -797.378)" fill="url(#linear-gradient-2)"/>
        <path id="Path_10000" data-name="Path 10000" d="M1255.523,828.672h-1.341v-6.429h1.341Zm2.544-6.429h-1.341v6.429h1.341Zm2.544,0h-1.341v6.429h1.341Zm2.544,0h-1.339v6.429h1.339Zm-7.631,19.736h-1.341V835.55h1.341Zm2.544-6.429h-1.341v6.429h1.341Zm2.544,0h-1.341v6.429h1.341Zm2.544,0h-1.339v6.429h1.339Zm-7.631,15.1h-1.341v-6.429h1.341Zm2.544-6.429h-1.341v6.429h1.341Zm2.544,0h-1.341v6.429h1.341Zm2.544,0h-1.339v6.429h1.339Zm-7.631,15.1h-1.341v-6.429h1.341Zm2.544-6.429h-1.341v6.429h1.341Zm2.544,0h-1.341v6.429h1.341Zm2.544,0h-1.339v6.429h1.339Zm-7.631,15.1h-1.341v-6.429h1.341Zm2.544-6.429h-1.341v6.429h1.341Zm2.544,0h-1.341v6.429h1.341Zm2.544,0h-1.339v6.429h1.339Zm-7.631,15.1h-1.341v-6.431h1.341Zm2.544-6.431h-1.341v6.431h1.341Zm2.544,0h-1.341v6.431h1.341Zm2.544,0h-1.339v6.431h1.339Zm-7.631,15.1h-1.341V878.91h1.341Zm2.544-6.429h-1.341v6.429h1.341Zm2.544,0h-1.341v6.429h1.341Zm2.544,0h-1.339v6.429h1.339Z" transform="translate(-1227.402 -797.378)" fill="#747474"/>
        <path id="Path_10001" data-name="Path 10001" d="M1248.334,891.531h2.915v6.431h-2.915Zm0-2.243h2.915v-6.429h-2.915Zm0,17.344h2.915V900.2h-2.915Zm0-34.687h2.915v-6.431h-2.915Zm0,8.671h2.915v-6.429h-2.915Zm0-17.344h2.915v-6.429h-2.915Zm-5.531,26.016h2.915v-6.429H1242.8Zm0,8.673h2.915v-6.431H1242.8Zm0-26.016h2.915v-6.431H1242.8Zm0-8.673h2.915v-6.429H1242.8Zm0,17.344h2.915v-6.429H1242.8Zm0,26.016h2.915V900.2H1242.8Zm16.6-26.016h2.916v-6.429H1259.4Zm0,26.016h2.916V900.2H1259.4Zm0-8.671h2.916v-6.431H1259.4Zm0-8.673h2.916v-6.429H1259.4Zm0-17.342h2.916v-6.431H1259.4Zm0-8.673h2.916v-6.429H1259.4Zm-5.531,26.016h2.915v-6.429h-2.915Zm0,8.673h2.915v-6.431h-2.915Zm0,8.671h2.915V900.2h-2.915Zm0-43.36h2.915v-6.429h-2.915Zm0,8.673h2.915v-6.431h-2.915Zm0,8.671h2.915v-6.429h-2.915Z" transform="translate(-1239.5 -760.594)" fill="url(#linear-gradient-3)"/>
        <path id="Path_10002" data-name="Path 10002" d="M1256.726,882.859h1.341v6.429h-1.341Zm-2.544,23.773h1.341V900.2h-1.341Zm2.544,0h1.341V900.2h-1.341Zm0-26.016h1.341v-6.429h-1.341Zm-2.544-17.344h1.341v-6.429h-1.341Zm2.544,8.673h1.341v-6.431h-1.341Zm0,26.016h1.341v-6.431h-1.341Zm-2.544,0h1.341v-6.431h-1.341Zm2.544-34.689h1.341v-6.429h-1.341Zm-2.544,17.344h1.341v-6.429h-1.341Zm0,8.671h1.341v-6.429h-1.341Zm0-17.342h1.341v-6.431h-1.341Zm7.633,0h1.339v-6.431h-1.339Zm0,26.016h1.339v-6.431h-1.339Zm0-8.673h1.339v-6.429h-1.339Zm0-8.671h1.339v-6.429h-1.339Zm0-17.344h1.339v-6.429h-1.339Zm0,43.36h1.339V900.2h-1.339Zm-2.546-34.687h1.341v-6.431h-1.341Zm0,17.342h1.341v-6.429h-1.341Zm0-26.016h1.341v-6.429h-1.341Zm0,34.689h1.341v-6.431h-1.341Zm0-17.344h1.341v-6.429h-1.341Zm0,26.016h1.341V900.2h-1.341Z" transform="translate(-1227.402 -760.594)" fill="#747474"/>
        <path id="Path_10003" data-name="Path 10003" d="M1248.334,897.152h2.915v-6.431h-2.915Zm0,8.671h2.915v-6.429h-2.915Zm0-17.344h2.915V882.05h-2.915Zm-5.531,8.673h2.915v-6.431H1242.8Zm0-8.673h2.915V882.05H1242.8Zm0,17.344h2.915v-6.429H1242.8Zm16.6,0h2.916v-6.429H1259.4Zm0-8.671h2.916v-6.431H1259.4Zm0-8.673h2.916V882.05H1259.4Zm-5.531,0h2.915V882.05h-2.915Zm0,8.673h2.915v-6.431h-2.915Zm0,8.671h2.915v-6.429h-2.915Z" transform="translate(-1239.5 -733.798)" fill="url(#linear-gradient-3)"/>
        <path id="Path_10004" data-name="Path 10004" d="M1256.726,905.823h1.341v-6.429h-1.341Zm-2.544-17.344h1.341V882.05h-1.341Zm2.544,8.673h1.341v-6.431h-1.341Zm0-8.673h1.341V882.05h-1.341Zm-2.544,17.344h1.341v-6.429h-1.341Zm0-8.671h1.341v-6.431h-1.341Zm7.633,0h1.339v-6.431h-1.339Zm0,8.671h1.339v-6.429h-1.339Zm0-17.344h1.339V882.05h-1.339Zm-2.546,8.673h1.341v-6.431h-1.341Zm0-8.673h1.341V882.05h-1.341Zm0,17.344h1.341v-6.429h-1.341Z" transform="translate(-1227.402 -733.798)" fill="#747474"/>
      </g>
      <rect id="Rectangle_5807" data-name="Rectangle 5807" width="18.349" height="107.701" transform="translate(286.59 128.114)" fill="#dadada"/>
      <rect id="Rectangle_5808" data-name="Rectangle 5808" width="89.516" height="107.701" transform="translate(197.075 128.114)" fill="#eee"/>
      <rect id="Rectangle_5809" data-name="Rectangle 5809" width="20.104" height="5.984" transform="translate(286.59 123.566)" fill="#eaeaea"/>
      <rect id="Rectangle_5810" data-name="Rectangle 5810" width="92.148" height="5.984" transform="translate(194.442 123.566)" fill="#f7f7f7"/>
      <path id="Path_10005" data-name="Path 10005" d="M1237.047,855.011h-2.181v-8.337h2.181Zm4.006-8.337h-2.178v8.337h2.178Zm4.009,0h-2.181v8.337h2.181Zm4.006,0h-2.178v8.337h2.178ZM1237.047,858.6h-2.181v8.337h2.181Zm4.006,0h-2.178v8.337h2.178Zm4.009,0h-2.181v8.337h2.181Zm4.006,0h-2.178v8.337h2.178Zm-12.022,11.931h-2.181v8.337h2.181Zm4.006,0h-2.178v8.337h2.178Zm4.009,0h-2.181v8.337h2.181Zm4.006,0h-2.178v8.337h2.178Zm-12.022,11.929h-2.181V890.8h2.181Zm4.006,0h-2.178V890.8h2.178Zm4.009,0h-2.181V890.8h2.181Zm4.006,0h-2.178V890.8h2.178ZM1237.047,894.4h-2.181v8.337h2.181Zm4.006,0h-2.178v8.337h2.178Zm4.009,0h-2.181v8.337h2.181Zm4.006,0h-2.178v8.337h2.178Zm-12.022,11.931h-2.181v8.337h2.181Zm4.006,0h-2.178v8.337h2.178Zm4.009,0h-2.181v8.337h2.181Zm4.006,0h-2.178v8.337h2.178Zm-12.022,11.931h-2.181v8.337h2.181Zm4.006,0h-2.178v8.337h2.178Zm4.009,0h-2.181v8.337h2.181Zm4.006,0h-2.178v8.337h2.178Zm-12.022,11.931h-2.181v8.337h2.181Zm4.006,0h-2.178v8.337h2.178Zm4.009,0h-2.181v8.337h2.181Zm4.006,0h-2.178v8.337h2.178Z" transform="translate(-945.485 -714.076)" fill="#747474"/>
      <rect id="Rectangle_5811" data-name="Rectangle 5811" width="60.154" height="5.569" transform="translate(134.899 65.559)" fill="#eee"/>
      <rect id="Rectangle_5812" data-name="Rectangle 5812" width="42.669" height="12.379" transform="translate(143.467 53.18)" fill="#dadada"/>
      <rect id="Rectangle_5813" data-name="Rectangle 5813" width="26.535" height="12.379" transform="translate(143.467 53.18)" fill="#eee"/>
      <rect id="Rectangle_5814" data-name="Rectangle 5814" width="97.855" height="5.569" transform="translate(201.721 117.895)" fill="#eee"/>
      <rect id="Rectangle_5815" data-name="Rectangle 5815" width="69.411" height="12.379" transform="translate(215.659 105.517)" fill="#dadada"/>
      <rect id="Rectangle_5816" data-name="Rectangle 5816" width="58.478" height="12.379" transform="translate(215.659 105.517)" fill="#eee"/>
      <rect id="Rectangle_5817" data-name="Rectangle 5817" width="15.896" height="11.125" transform="translate(201.721 133.403)" fill="url(#linear-gradient-5)"/>
      <rect id="Rectangle_5818" data-name="Rectangle 5818" width="15.896" height="11.125" transform="translate(220.167 133.403)" fill="url(#linear-gradient-6)"/>
      <rect id="Rectangle_5819" data-name="Rectangle 5819" width="15.896" height="11.125" transform="translate(238.371 133.403)" fill="url(#linear-gradient-7)"/>
      <rect id="Rectangle_5820" data-name="Rectangle 5820" width="15.896" height="11.125" transform="translate(201.721 147.303)" fill="url(#linear-gradient-8)"/>
      <rect id="Rectangle_5821" data-name="Rectangle 5821" width="15.896" height="11.125" transform="translate(220.167 147.303)" fill="url(#linear-gradient-9)"/>
      <rect id="Rectangle_5822" data-name="Rectangle 5822" width="15.896" height="11.125" transform="translate(238.371 147.303)" fill="url(#linear-gradient-10)"/>
      <rect id="Rectangle_5823" data-name="Rectangle 5823" width="15.896" height="11.125" transform="translate(201.721 161.203)" fill="url(#linear-gradient-11)"/>
      <rect id="Rectangle_5824" data-name="Rectangle 5824" width="15.896" height="11.125" transform="translate(220.167 161.203)" fill="url(#linear-gradient-12)"/>
      <rect id="Rectangle_5825" data-name="Rectangle 5825" width="15.896" height="11.125" transform="translate(238.371 161.203)" fill="url(#linear-gradient-13)"/>
      <rect id="Rectangle_5826" data-name="Rectangle 5826" width="15.896" height="11.125" transform="translate(201.721 175.103)" fill="url(#linear-gradient-14)"/>
      <rect id="Rectangle_5827" data-name="Rectangle 5827" width="15.896" height="11.125" transform="translate(220.167 175.103)" fill="url(#linear-gradient-15)"/>
      <rect id="Rectangle_5828" data-name="Rectangle 5828" width="15.896" height="11.125" transform="translate(238.371 175.103)" fill="url(#linear-gradient-16)"/>
      <rect id="Rectangle_5829" data-name="Rectangle 5829" width="15.896" height="11.125" transform="translate(201.721 189.002)" fill="url(#linear-gradient-17)"/>
      <rect id="Rectangle_5830" data-name="Rectangle 5830" width="15.896" height="11.125" transform="translate(220.167 189.002)" fill="url(#linear-gradient-18)"/>
      <rect id="Rectangle_5831" data-name="Rectangle 5831" width="15.896" height="11.125" transform="translate(238.371 189.002)" fill="url(#linear-gradient-19)"/>
      <rect id="Rectangle_5832" data-name="Rectangle 5832" width="15.896" height="11.125" transform="translate(201.721 202.902)" fill="url(#linear-gradient-20)"/>
      <rect id="Rectangle_5833" data-name="Rectangle 5833" width="15.896" height="11.125" transform="translate(220.167 202.902)" fill="url(#linear-gradient-21)"/>
      <rect id="Rectangle_5834" data-name="Rectangle 5834" width="15.896" height="11.125" transform="translate(238.371 202.902)" fill="url(#linear-gradient-22)"/>
      <rect id="Rectangle_5835" data-name="Rectangle 5835" width="15.896" height="11.125" transform="translate(201.721 216.802)" fill="url(#linear-gradient-23)"/>
      <rect id="Rectangle_5836" data-name="Rectangle 5836" width="15.896" height="11.125" transform="translate(220.167 216.802)" fill="url(#linear-gradient-24)"/>
      <rect id="Rectangle_5837" data-name="Rectangle 5837" width="15.896" height="11.125" transform="translate(238.371 216.802)" fill="url(#linear-gradient-25)"/>
      <rect id="Rectangle_5838" data-name="Rectangle 5838" width="15.896" height="95.952" transform="translate(262.481 133.403)" fill="url(#linear-gradient-26)"/>
      <rect id="Rectangle_5839" data-name="Rectangle 5839" width="70.588" height="133.483" transform="translate(64.786 102.95)" fill="#eee"/>
      <rect id="Rectangle_5879" data-name="Rectangle 5879" width="65.243" height="123.374" transform="translate(338.212 113.059)" fill="#eee"/>
      <rect id="Rectangle_5840" data-name="Rectangle 5840" width="81.692" height="7.722" transform="translate(53.682 95.501)" fill="#d0d0d0"/>
      <rect id="Rectangle_5880" data-name="Rectangle 5880" width="75.506" height="7.138" transform="translate(338.212 106.173)" fill="#d0d0d0"/>
      <rect id="Rectangle_5841" data-name="Rectangle 5841" width="62.321" height="14.257" transform="translate(66.948 81.244)" fill="#f7f7f7"/>
      <rect id="Rectangle_5881" data-name="Rectangle 5881" width="57.601" height="13.177" transform="translate(343.855 92.996)" fill="#f7f7f7"/>
      <rect id="Rectangle_5842" data-name="Rectangle 5842" width="22.753" height="14.257" transform="translate(106.515 81.244)" fill="#dadada"/>
      <rect id="Rectangle_5882" data-name="Rectangle 5882" width="21.03" height="13.177" transform="translate(343.855 92.996)" fill="#dadada"/>
      <g id="Group_2634" data-name="Group 2634" transform="translate(54.284 105.654)">
        <rect id="Rectangle_5843" data-name="Rectangle 5843" width="8.644" height="9.278" transform="translate(17.385)" fill="#919294"/>
        <rect id="Rectangle_5844" data-name="Rectangle 5844" width="8.644" height="9.278" transform="translate(29.866)" fill="#919294"/>
        <rect id="Rectangle_5845" data-name="Rectangle 5845" width="8.644" height="9.278" transform="translate(41.819)" fill="#919294"/>
        <rect id="Rectangle_5846" data-name="Rectangle 5846" width="8.644" height="9.278" transform="translate(53.771)" fill="#919294"/>
        <rect id="Rectangle_5847" data-name="Rectangle 5847" width="8.644" height="9.278" transform="translate(65.723)" fill="#919294"/>
        <rect id="Rectangle_5848" data-name="Rectangle 5848" width="80.977" height="4.807" transform="translate(0 13.748)" fill="#919294"/>
      </g>
      <g id="Group_2648" data-name="Group 2648" transform="translate(338.316 115.557)">
        <rect id="Rectangle_5843-2" data-name="Rectangle 5843" width="7.989" height="8.575" transform="translate(50.787 0)" fill="#919294"/>
        <rect id="Rectangle_5844-2" data-name="Rectangle 5844" width="7.989" height="8.575" transform="translate(39.251 0)" fill="#919294"/>
        <rect id="Rectangle_5845-2" data-name="Rectangle 5845" width="7.989" height="8.575" transform="translate(28.204 0)" fill="#919294"/>
        <rect id="Rectangle_5846-2" data-name="Rectangle 5846" width="7.989" height="8.575" transform="translate(17.157 0)" fill="#919294"/>
        <rect id="Rectangle_5847-2" data-name="Rectangle 5847" width="7.989" height="8.575" transform="translate(6.11 0)" fill="#919294"/>
        <rect id="Rectangle_5848-2" data-name="Rectangle 5848" width="74.845" height="4.443" transform="translate(0 12.707)" fill="#919294"/>
      </g>
      <g id="Group_2635" data-name="Group 2635" transform="translate(54.284 131.056)">
        <rect id="Rectangle_5849" data-name="Rectangle 5849" width="8.644" height="9.278" transform="translate(17.385)" fill="#919294"/>
        <rect id="Rectangle_5850" data-name="Rectangle 5850" width="8.644" height="9.278" transform="translate(29.866)" fill="#919294"/>
        <rect id="Rectangle_5851" data-name="Rectangle 5851" width="8.644" height="9.278" transform="translate(41.819)" fill="#919294"/>
        <rect id="Rectangle_5852" data-name="Rectangle 5852" width="8.644" height="9.278" transform="translate(53.771)" fill="#919294"/>
        <rect id="Rectangle_5853" data-name="Rectangle 5853" width="8.644" height="9.278" transform="translate(65.723)" fill="#919294"/>
        <rect id="Rectangle_5854" data-name="Rectangle 5854" width="80.977" height="4.807" transform="translate(0 13.748)" fill="#919294"/>
      </g>
      <g id="Group_2647" data-name="Group 2647" transform="translate(338.316 139.036)">
        <rect id="Rectangle_5849-2" data-name="Rectangle 5849" width="7.989" height="8.575" transform="translate(50.787 0)" fill="#919294"/>
        <rect id="Rectangle_5850-2" data-name="Rectangle 5850" width="7.989" height="8.575" transform="translate(39.251 0)" fill="#919294"/>
        <rect id="Rectangle_5851-2" data-name="Rectangle 5851" width="7.989" height="8.575" transform="translate(28.204 0)" fill="#919294"/>
        <rect id="Rectangle_5852-2" data-name="Rectangle 5852" width="7.989" height="8.575" transform="translate(17.157 0)" fill="#919294"/>
        <rect id="Rectangle_5853-2" data-name="Rectangle 5853" width="7.989" height="8.575" transform="translate(6.11 0)" fill="#919294"/>
        <rect id="Rectangle_5854-2" data-name="Rectangle 5854" width="74.845" height="4.443" transform="translate(0 12.707)" fill="#919294"/>
      </g>
      <g id="Group_2636" data-name="Group 2636" transform="translate(54.284 156.459)">
        <rect id="Rectangle_5855" data-name="Rectangle 5855" width="8.644" height="9.278" transform="translate(17.385)" fill="#919294"/>
        <rect id="Rectangle_5856" data-name="Rectangle 5856" width="8.644" height="9.278" transform="translate(29.866)" fill="#919294"/>
        <rect id="Rectangle_5857" data-name="Rectangle 5857" width="8.644" height="9.278" transform="translate(41.819)" fill="#919294"/>
        <rect id="Rectangle_5858" data-name="Rectangle 5858" width="8.644" height="9.278" transform="translate(53.771)" fill="#919294"/>
        <rect id="Rectangle_5859" data-name="Rectangle 5859" width="8.644" height="9.278" transform="translate(65.723)" fill="#919294"/>
        <rect id="Rectangle_5860" data-name="Rectangle 5860" width="80.977" height="4.807" transform="translate(0 13.748)" fill="#919294"/>
      </g>
      <g id="Group_2646" data-name="Group 2646" transform="translate(338.316 162.515)">
        <rect id="Rectangle_5855-2" data-name="Rectangle 5855" width="7.989" height="8.575" transform="translate(50.787)" fill="#919294"/>
        <rect id="Rectangle_5856-2" data-name="Rectangle 5856" width="7.989" height="8.575" transform="translate(39.251)" fill="#919294"/>
        <rect id="Rectangle_5857-2" data-name="Rectangle 5857" width="7.989" height="8.575" transform="translate(28.204)" fill="#919294"/>
        <rect id="Rectangle_5858-2" data-name="Rectangle 5858" width="7.989" height="8.575" transform="translate(17.157)" fill="#919294"/>
        <rect id="Rectangle_5859-2" data-name="Rectangle 5859" width="7.989" height="8.575" transform="translate(6.11)" fill="#919294"/>
        <rect id="Rectangle_5860-2" data-name="Rectangle 5860" width="74.845" height="4.443" transform="translate(0 12.707)" fill="#919294"/>
      </g>
      <g id="Group_2637" data-name="Group 2637" transform="translate(54.284 181.862)">
        <rect id="Rectangle_5861" data-name="Rectangle 5861" width="8.644" height="9.278" transform="translate(17.385)" fill="#919294"/>
        <rect id="Rectangle_5862" data-name="Rectangle 5862" width="8.644" height="9.278" transform="translate(29.866)" fill="#919294"/>
        <rect id="Rectangle_5863" data-name="Rectangle 5863" width="8.644" height="9.278" transform="translate(41.819)" fill="#919294"/>
        <rect id="Rectangle_5864" data-name="Rectangle 5864" width="8.644" height="9.278" transform="translate(53.771)" fill="#919294"/>
        <rect id="Rectangle_5865" data-name="Rectangle 5865" width="8.644" height="9.278" transform="translate(65.723)" fill="#919294"/>
        <rect id="Rectangle_5866" data-name="Rectangle 5866" width="80.977" height="4.807" transform="translate(0 13.748)" fill="#919294"/>
      </g>
      <g id="Group_2645" data-name="Group 2645" transform="translate(338.316 185.994)">
        <rect id="Rectangle_5861-2" data-name="Rectangle 5861" width="7.989" height="8.575" transform="translate(50.787 0)" fill="#919294"/>
        <rect id="Rectangle_5862-2" data-name="Rectangle 5862" width="7.989" height="8.575" transform="translate(39.251 0)" fill="#919294"/>
        <rect id="Rectangle_5863-2" data-name="Rectangle 5863" width="7.989" height="8.575" transform="translate(28.204 0)" fill="#919294"/>
        <rect id="Rectangle_5864-2" data-name="Rectangle 5864" width="7.989" height="8.575" transform="translate(17.157 0)" fill="#919294"/>
        <rect id="Rectangle_5865-2" data-name="Rectangle 5865" width="7.989" height="8.575" transform="translate(6.11 0)" fill="#919294"/>
        <rect id="Rectangle_5866-2" data-name="Rectangle 5866" width="74.845" height="4.443" transform="translate(0 12.707)" fill="#919294"/>
      </g>
      <g id="Group_2638" data-name="Group 2638" transform="translate(54.284 207.265)">
        <rect id="Rectangle_5867" data-name="Rectangle 5867" width="8.644" height="9.278" transform="translate(17.385)" fill="#919294"/>
        <rect id="Rectangle_5868" data-name="Rectangle 5868" width="8.644" height="9.278" transform="translate(29.866)" fill="#919294"/>
        <rect id="Rectangle_5869" data-name="Rectangle 5869" width="8.644" height="9.278" transform="translate(41.819)" fill="#919294"/>
        <rect id="Rectangle_5870" data-name="Rectangle 5870" width="8.644" height="9.278" transform="translate(53.771)" fill="#919294"/>
        <rect id="Rectangle_5871" data-name="Rectangle 5871" width="8.644" height="9.278" transform="translate(65.723)" fill="#919294"/>
        <rect id="Rectangle_5872" data-name="Rectangle 5872" width="80.977" height="4.807" transform="translate(0 13.748)" fill="#919294"/>
      </g>
      <g id="Group_2644" data-name="Group 2644" transform="translate(338.316 209.473)">
        <rect id="Rectangle_5867-2" data-name="Rectangle 5867" width="7.989" height="8.575" transform="translate(50.787 0)" fill="#919294"/>
        <rect id="Rectangle_5868-2" data-name="Rectangle 5868" width="7.989" height="8.575" transform="translate(39.251 0)" fill="#919294"/>
        <rect id="Rectangle_5869-2" data-name="Rectangle 5869" width="7.989" height="8.575" transform="translate(28.204 0)" fill="#919294"/>
        <rect id="Rectangle_5870-2" data-name="Rectangle 5870" width="7.989" height="8.575" transform="translate(17.157 0)" fill="#919294"/>
        <rect id="Rectangle_5871-2" data-name="Rectangle 5871" width="7.989" height="8.575" transform="translate(6.11 0)" fill="#919294"/>
        <rect id="Rectangle_5872-2" data-name="Rectangle 5872" width="74.845" height="4.443" transform="translate(0 12.707)" fill="#919294"/>
      </g>
      <rect id="Rectangle_5873" data-name="Rectangle 5873" width="402.837" height="9.056" transform="translate(31.045 236.433)" fill="#d0d0d0"/>
      <path id="Path_10006" data-name="Path 10006" d="M1141.293,814.979c0,.293-.021.58-.043.869h-42.32a6.058,6.058,0,0,1,7.445-5.738,10.732,10.732,0,0,1,19.184-2.879,9.769,9.769,0,0,1,15.735,7.749Z" transform="translate(-1017.981 -767.888)" fill="#d0d0d0" opacity="0.532"/>
      <path id="Path_10008" data-name="Path 10008" d="M1259.5,791.536c0,.159.012.317.024.474h23.142a3.313,3.313,0,0,0-4.071-3.138,5.868,5.868,0,0,0-10.49-1.574,5.342,5.342,0,0,0-8.6,4.237Z" transform="translate(-938.173 -768.701)" fill="#d0d0d0"/>
      <path id="Path_10009" data-name="Path 10009" d="M1090.826,836.033c0,.07.005.14.01.209h18.079a2.078,2.078,0,0,0-1.564-1.792,6.244,6.244,0,0,0-12.137-1.025,2.97,2.97,0,0,0-4.388,2.609Z" transform="translate(-1046.189 -761.527)" fill="#d0d0d0"/>
      <path id="Path_10011" data-name="Path 10011" d="M1121.94,841.05c0,.12-.01.24-.017.36h-31.1a3.575,3.575,0,0,1,2.691-3.083,10.74,10.74,0,0,1,20.876-1.764,5.108,5.108,0,0,1,7.547,4.487Z" transform="translate(-693.222 -763.508)" fill="#d0d0d0"/>
    </g>
    <circle id="Ellipse_277" data-name="Ellipse 277" cx="23.201" cy="23.201" r="23.201" transform="translate(1317.304 814.571)" fill="#d0d0d0" opacity="0.14"/>
    <circle id="Ellipse_278" data-name="Ellipse 278" cx="16.353" cy="16.353" r="16.353" transform="translate(1324.152 821.419)" fill="#f39d38"/>
    <path id="Path_10010" data-name="Path 10010" d="M1170.1,782.991h-17.5a4.762,4.762,0,0,1,8.96-2.15,2.687,2.687,0,0,1,3.912,1,2.6,2.6,0,0,1,4.625,1.151Z" transform="translate(98.774 42.109)" fill="#d0d0d0"/>
    <path id="Path_10012" data-name="Path 10012" d="M1276.053,812.077c0,.5-.035.978-.072,1.463H1204.61a10.2,10.2,0,0,1,10.188-9.948,10.083,10.083,0,0,1,2.369.274,18.1,18.1,0,0,1,32.351-4.854,16.472,16.472,0,0,1,26.536,13.066Z" transform="translate(122.225 47.095)" fill="#d0d0d0"/>
  </g>
</svg>
