<?xml version="1.0" standalone="no"?>
<!DOCTYPE svg PUBLIC "-//W3C//DTD SVG 20010904//EN"
 "http://www.w3.org/TR/2001/REC-SVG-20010904/DTD/svg10.dtd">
<svg version="1.0" xmlns="http://www.w3.org/2000/svg"
 width="576.000000pt" height="576.000000pt" viewBox="0 0 576.000000 576.000000"
 preserveAspectRatio="xMidYMid meet">
<metadata>
Created by potrace 1.14, written by Peter Selinger 2001-2017
</metadata>
<g transform="translate(0.000000,576.000000) scale(0.100000,-0.100000)"
fill="#000000" stroke="none">
<path d="M328 5740 c-41 -22 -88 -83 -88 -115 0 -12 27 -65 60 -119 33 -54 60
-103 60 -107 0 -5 4 -9 9 -9 5 0 11 -8 14 -17 6 -19 38 -75 48 -83 3 -3 12
-17 20 -31 21 -40 136 -232 146 -244 4 -5 49 -77 98 -160 50 -82 95 -159 102
-170 7 -11 16 -29 22 -40 24 -53 -39 -50 1125 -51 595 0 1101 -4 1126 -8 25
-5 52 -10 61 -11 65 -12 249 -98 249 -116 0 -5 4 -9 10 -9 24 0 131 -124 164
-190 45 -88 58 -145 62 -261 3 -101 1 -128 -20 -200 -23 -79 -61 -159 -96
-203 -74 -94 -148 -154 -250 -203 -135 -66 -131 -65 -915 -68 -390 -1 -712 -3
-714 -4 -2 0 1 -7 7 -14 10 -11 187 -301 216 -352 6 -11 83 -138 171 -283 199
-327 233 -384 370 -637 21 -38 61 -113 90 -165 106 -193 119 -216 153 -280 19
-36 50 -91 68 -123 19 -32 34 -60 34 -63 0 -3 17 -36 39 -72 39 -67 76 -135
159 -292 25 -47 56 -102 69 -122 12 -21 23 -39 23 -42 0 -2 31 -59 68 -127 61
-111 91 -166 166 -304 176 -325 186 -341 230 -365 l43 -23 849 -1 c538 -1 865
3 892 9 59 14 107 55 119 102 13 52 0 103 -43 170 -19 31 -40 65 -45 77 -11
25 -25 49 -57 94 -13 17 -20 32 -17 32 3 0 -7 19 -23 43 -16 23 -44 69 -63
102 -42 75 -35 63 -149 256 -52 89 -104 178 -116 198 -12 20 -48 81 -80 136
-33 55 -63 107 -67 115 -4 8 -15 27 -25 42 -35 53 -82 138 -82 147 0 5 -4 11
-8 13 -10 4 -222 366 -222 379 0 5 -4 9 -8 9 -4 0 -20 24 -35 53 -16 28 -36
64 -45 79 -37 59 -112 191 -112 198 0 5 -4 10 -9 12 -4 2 -11 12 -14 23 -6 17
4 24 71 49 128 48 332 145 332 159 0 4 5 7 12 7 9 0 141 81 183 113 101 76
212 173 269 236 17 19 38 42 46 50 8 9 34 41 57 71 24 30 47 60 53 67 5 7 10
16 10 22 0 5 4 11 9 13 12 4 86 138 122 221 56 127 105 291 116 387 3 25 8 61
12 80 8 39 6 338 -3 385 -3 17 -7 46 -10 65 -23 162 -96 380 -179 530 -222
404 -591 704 -1052 855 -94 30 -267 71 -344 80 -30 4 -63 10 -75 13 -12 3
-788 7 -1726 9 -1684 2 -1705 2 -1742 -17z"/>
<path d="M1100 3293 c-13 -5 -52 -33 -95 -66 -5 -4 -104 -75 -220 -157 -116
-82 -215 -152 -220 -157 -6 -4 -33 -24 -60 -43 -28 -19 -55 -39 -62 -45 -6 -5
-41 -30 -78 -55 -37 -25 -80 -57 -96 -72 l-29 -27 0 -1064 c0 -835 3 -1067 13
-1080 6 -9 93 -61 192 -115 99 -54 205 -112 235 -129 30 -17 80 -44 110 -61
30 -16 84 -46 120 -66 36 -20 97 -53 137 -73 l71 -37 234 59 c128 32 310 78
403 102 94 24 179 45 190 47 11 3 47 12 80 21 79 21 95 25 129 31 16 3 40 10
53 15 l23 9 0 519 0 520 -31 53 c-17 29 -40 69 -50 88 l-19 35 0 -52 c0 -61
-1 -62 -110 -60 l-75 2 0 110 0 110 58 0 c31 0 57 2 57 4 0 18 -78 145 -92
149 -20 5 -20 6 -23 42 -2 22 -156 304 -195 358 -9 12 -31 23 -55 26 -88 13
-80 1 -82 117 -3 113 -2 111 -82 249 -31 52 -55 98 -53 103 3 10 -16 9 -22 -1
-5 -9 -145 20 -198 40 -26 10 -28 15 -29 67 -1 83 2 185 6 189 2 2 19 -1 39
-6 20 -6 36 -8 36 -5 0 16 -176 313 -185 312 -5 0 -17 -3 -25 -6z m-94 -456
c-1 -75 -5 -119 -13 -129 -17 -20 -91 -53 -100 -44 -12 11 -10 216 1 231 15
18 77 53 97 54 14 1 16 -15 15 -112z m-240 -149 l-1 -102 -40 -23 c-64 -36
-65 -35 -65 81 l0 105 43 29 c26 19 46 27 53 21 7 -5 10 -48 10 -111z m-198
-110 l-3 -101 -34 -19 c-48 -27 -56 -15 -56 89 l1 88 33 22 c59 40 62 35 59
-79z m-161 -96 l1 -92 -34 -16 c-19 -9 -38 -14 -42 -10 -3 4 -7 45 -8 91 l-2
84 31 20 c18 12 37 19 42 17 6 -1 11 -43 12 -94z m923 63 c14 -3 47 -8 73 -12
26 -3 51 -11 54 -17 10 -16 11 -208 1 -228 -5 -11 -16 -15 -31 -12 -12 3 -59
11 -104 17 -45 7 -84 15 -87 17 -6 7 -8 59 -7 164 l1 89 38 -6 c20 -3 48 -8
62 -12z m-325 -140 l0 -118 -53 -20 c-29 -11 -56 -17 -60 -13 -4 4 -7 57 -8
118 l0 111 50 23 c28 12 56 22 61 20 6 -2 10 -50 10 -121z m-239 -97 l1 -107
-45 -15 c-24 -9 -48 -13 -53 -10 -5 3 -9 52 -9 109 l0 103 38 16 c65 27 67 24
68 -96z m-196 -77 l0 -99 -29 -12 c-58 -24 -65 -15 -65 83 -1 49 1 93 4 98 8
12 73 38 82 33 5 -3 8 -49 8 -103z m-160 -60 c0 -47 -5 -83 -12 -93 -14 -17
-67 -33 -69 -21 -1 5 -3 46 -4 93 l-2 85 31 15 c46 23 56 10 56 -79z m918 -56
c65 -4 124 -14 131 -21 11 -10 7 -234 -4 -238 -6 -2 -34 -2 -61 1 -42 4 -101
9 -151 12 -10 1 -13 33 -13 125 0 120 6 144 32 129 4 -2 34 -6 66 -8z m-320
-129 c1 -67 -3 -109 -11 -119 -7 -10 -31 -17 -62 -19 l-50 -3 0 115 0 115 50
17 c30 10 54 13 61 7 6 -5 11 -52 12 -113z m737 79 c33 -4 63 -9 68 -12 4 -2
7 -53 7 -114 0 -80 -3 -109 -12 -110 -14 -1 -80 2 -139 6 -20 1 -42 5 -48 9
-12 8 -16 191 -5 221 5 11 15 15 38 11 17 -3 58 -8 91 -11z m-979 -133 c0 -67
-4 -106 -11 -112 -7 -5 -29 -11 -51 -12 l-39 -3 -3 90 c-4 115 1 133 36 138
68 11 67 12 68 -101z m-201 -47 l0 -99 -39 -9 c-26 -7 -40 -6 -45 1 -10 16 -5
182 5 192 11 10 44 18 64 16 12 -1 15 -20 15 -101z m-160 -36 l0 -93 -32 -7
c-17 -3 -35 -3 -40 0 -5 3 -9 45 -10 93 0 85 0 87 26 96 53 18 56 13 56 -89z
m1054 -173 c3 -2 6 -57 6 -123 l0 -118 -115 0 -115 0 -3 114 c-1 63 -1 120 2
127 3 9 34 11 111 8 59 -2 110 -6 114 -8z m-452 -101 c4 -145 4 -146 -62 -144
-30 1 -56 5 -56 8 -6 26 -4 218 2 226 5 6 32 11 61 10 l53 0 2 -100z m713 94
c41 -1 81 -4 88 -7 8 -3 12 -35 12 -112 0 -77 -4 -109 -12 -112 -7 -3 -53 -4
-103 -4 l-90 1 -3 109 c-2 101 7 144 27 132 4 -3 40 -6 81 -7z m-954 -117 c0
-62 -4 -106 -10 -111 -6 -5 -29 -8 -51 -7 l-40 1 -3 90 c-4 128 -2 133 55 131
l48 -1 1 -103z m-198 -10 c1 -56 -1 -102 -5 -103 -89 -10 -90 -8 -88 103 0 80
6 93 40 100 48 10 50 7 53 -100z m-161 -5 c1 -92 -6 -108 -50 -101 -29 4 -32
11 -34 87 -2 101 1 109 45 105 l37 -3 2 -88z m-1 -227 c1 0 2 -43 3 -96 l2
-96 -38 7 c-21 4 -40 9 -43 12 -6 6 -9 166 -3 176 4 6 55 4 79 -3z m157 -19
c9 -9 11 -177 2 -192 -4 -5 -22 -8 -41 -6 -24 1 -36 8 -41 22 -10 29 -9 179 0
186 11 8 69 1 80 -10z m197 -21 c5 -9 6 -184 1 -214 0 -4 -13 -5 -28 -1 -32 8
-55 13 -65 14 -10 1 -11 205 -1 214 9 10 86 -1 93 -13z m1358 12 c15 -2 17
-198 2 -207 -16 -10 -97 -18 -151 -16 l-27 1 0 93 c0 108 3 125 25 129 16 3
126 3 151 0z m-300 -117 c1 -59 -1 -112 -5 -116 -5 -5 -47 -11 -93 -15 -47 -3
-88 -8 -91 -10 -13 -8 -18 26 -18 129 0 74 3 106 12 109 6 3 37 6 67 7 30 2
56 4 57 5 1 1 17 1 35 1 l33 -1 3 -109z m-832 90 c20 -4 21 -10 20 -122 l-1
-118 -54 2 c-29 1 -56 5 -59 8 -3 3 -7 55 -7 116 -2 134 -1 134 101 114z m470
-8 c9 -9 13 -212 4 -226 -5 -8 -91 -19 -195 -24 l-30 -2 0 125 0 125 65 5 c93
7 147 6 156 -3z m-1072 -247 c24 -9 25 -12 24 -97 -1 -48 -6 -91 -11 -94 -5
-4 -24 -1 -41 6 -31 13 -31 14 -33 92 -1 43 0 84 2 91 5 14 25 15 59 2z m155
-41 l31 -11 0 -97 c0 -54 -2 -100 -5 -103 -10 -9 -53 4 -72 21 -15 15 -18 32
-18 97 1 107 6 113 64 93z m1591 -149 c0 -54 -3 -101 -8 -104 -7 -4 -56 -13
-125 -22 -15 -1 -32 -6 -37 -9 -14 -9 -18 23 -18 123 1 103 3 106 72 111 22 2
49 6 60 11 12 4 29 4 39 -2 14 -7 17 -24 17 -108z m-1384 89 c20 -7 21 -14 20
-116 -1 -107 -1 -108 -25 -105 -13 1 -36 8 -50 15 -25 12 -26 16 -29 106 -1
52 0 101 2 108 6 13 31 11 82 -8z m1072 -132 c3 -104 2 -108 -20 -116 -24 -9
-102 -21 -153 -24 l-30 -2 -2 112 c-2 65 1 114 7 118 5 3 31 9 57 12 27 3 49
7 51 8 2 2 22 2 45 1 l42 -1 3 -108z m-841 67 l32 -12 -2 -111 c0 -61 -4 -115
-7 -121 -7 -11 -79 11 -105 31 -9 6 -13 166 -6 227 1 14 32 9 88 -14z m481
-11 c9 -19 10 -218 2 -227 -3 -3 -19 -7 -35 -10 -17 -3 -62 -12 -102 -19 -40
-8 -77 -11 -83 -7 -10 6 -17 237 -7 246 3 3 28 7 132 20 28 4 52 8 54 10 11
10 31 2 39 -13z"/>
</g>
</svg>
