<svg id="bankid-vector-logo" xmlns="http://www.w3.org/2000/svg" width="26.211" height="24.787" viewBox="0 0 26.211 24.787">
  <path id="Path_9238" data-name="Path 9238" d="M-69.007,80.323l1.081-6.9h-1.18a1.615,1.615,0,0,1-1.472-.858c-.074-.2-.223-.858.689-1.5a1.228,1.228,0,0,0,.565-.664.508.508,0,0,0-.149-.516,1.589,1.589,0,0,0-1.056-.292A1.464,1.464,0,0,0-72,70.433c-.05.268.174.466.342.59a1.077,1.077,0,0,1,.317,1.5,2.17,2.17,0,0,1-1.814.907h-1.2c-.1.664-1.72,10.971-1.839,11.779h6.484c.025-.342.317-2.305.709-4.883Z" transform="translate(77.276 -67.389)" fill="#459bbe"/>
  <path id="Path_9239" data-name="Path 9239" d="M100.661,25H94.082L93.2,30.572h1.13a1.68,1.68,0,0,0,1.448-.689.741.741,0,0,0,.124-.342.625.625,0,0,0-.317-.516,1.074,1.074,0,0,1-.516-.907v-.124a1.891,1.891,0,0,1,1.938-1.229,2.029,2.029,0,0,1,1.4.416,1.011,1.011,0,0,1,.292.932,1.861,1.861,0,0,1-.758.932c-.64.441-.565.833-.516.957a1.154,1.154,0,0,0,1.031.565h1.72c2.33.025,3.584,1.081,3.168,3.584-.367,2.305-2.137,3.312-4.244,3.336l-.882,5.324h1.229a10.109,10.109,0,0,0,10.331-8.641C110.819,27.627,106.65,25,100.661,25Z" transform="translate(-83.726 -25)" fill="#235971"/>
  <g id="Group_1899" data-name="Group 1899" transform="translate(0 20.197)">
    <g id="Group_1897" data-name="Group 1897" transform="translate(0 0)">
      <path id="Path_9240" data-name="Path 9240" d="M-97.186,432.4h2.652c1.13,0,1.4.565,1.324,1.106a1.207,1.207,0,0,1-.858.932c.64.248.882.615.783,1.2a1.55,1.55,0,0,1-1.6,1.274H-97.9Zm1.74,1.889a.715.715,0,0,0,.808-.59c.05-.342-.1-.59-.615-.59h-.466l-.2,1.18Zm-.292,1.963c.54,0,.833-.223.907-.664.05-.367-.149-.615-.664-.615h-.516l-.2,1.274h.471Z" transform="translate(97.9 -432.4)" fill="#235971"/>
      <path id="Path_9241" data-name="Path 9241" d="M4.641,455.309c-.689.05-1.031-.025-1.18-.317a2.256,2.256,0,0,1-1.2.342c-.783,0-1.056-.392-.982-.858a.877.877,0,0,1,.367-.59c.416-.367,1.5-.416,1.914-.714.025-.317-.1-.441-.491-.441a2.556,2.556,0,0,0-1.5.59l.149-1.031a2.777,2.777,0,0,1,1.74-.59c.808,0,1.522.317,1.373,1.2l-.149,1.006c-.05.342-.05.466.342.466Zm-1.175-1.547c-.367.223-1.056.2-1.13.664a.319.319,0,0,0,.317.392,1.245,1.245,0,0,0,.689-.248.753.753,0,0,1,.025-.317Z" transform="translate(3.653 -450.743)" fill="#235971"/>
      <path id="Path_9242" data-name="Path 9242" d="M84.865,452.25h1.373l-.074.466a1.741,1.741,0,0,1,1.2-.516c.758,0,1.13.466,1.006,1.249L88,455.759H86.63l.292-1.914c.05-.342-.05-.516-.317-.516a.805.805,0,0,0-.615.367l-.317,2.038H84.3Z" transform="translate(-75.268 -451.218)" fill="#235971"/>
      <path id="Path_9243" data-name="Path 9243" d="M174.134,432.4h1.378l-.342,2.231,1.324-1.2h1.7l-1.7,1.5,1.348,2.018H176.1l-1.056-1.621h-.025l-.248,1.621H173.4Z" transform="translate(-159.95 -432.4)" fill="#235971"/>
    </g>
    <g id="Group_1898" data-name="Group 1898" transform="translate(0 0)">
      <path id="Path_9244" data-name="Path 9244" d="M-97.186,432.4h2.652c1.13,0,1.4.565,1.324,1.106a1.207,1.207,0,0,1-.858.932c.64.248.882.615.783,1.2a1.55,1.55,0,0,1-1.6,1.274H-97.9Zm1.74,1.889a.715.715,0,0,0,.808-.59c.05-.342-.1-.59-.615-.59h-.466l-.2,1.18Zm-.292,1.963c.54,0,.833-.223.907-.664.05-.367-.149-.615-.664-.615h-.516l-.2,1.274h.471Z" transform="translate(97.9 -432.4)" fill="#235971"/>
      <path id="Path_9245" data-name="Path 9245" d="M4.641,455.309c-.689.05-1.031-.025-1.18-.317a2.256,2.256,0,0,1-1.2.342c-.783,0-1.056-.392-.982-.858a.877.877,0,0,1,.367-.59c.416-.367,1.5-.416,1.914-.714.025-.317-.1-.441-.491-.441a2.556,2.556,0,0,0-1.5.59l.149-1.031a2.777,2.777,0,0,1,1.74-.59c.808,0,1.522.317,1.373,1.2l-.149,1.006c-.05.342-.05.466.342.466Zm-1.175-1.547c-.367.223-1.056.2-1.13.664a.319.319,0,0,0,.317.392,1.245,1.245,0,0,0,.689-.248.753.753,0,0,1,.025-.317Z" transform="translate(3.653 -450.743)" fill="#235971"/>
      <path id="Path_9246" data-name="Path 9246" d="M84.865,452.25h1.373l-.074.466a1.741,1.741,0,0,1,1.2-.516c.758,0,1.13.466,1.006,1.249L88,455.759H86.63l.292-1.914c.05-.342-.05-.516-.317-.516a.805.805,0,0,0-.615.367l-.317,2.038H84.3Z" transform="translate(-75.268 -451.218)" fill="#235971"/>
      <path id="Path_9247" data-name="Path 9247" d="M174.134,432.4h1.378l-.342,2.231,1.324-1.2h1.7l-1.7,1.5,1.348,2.018H176.1l-1.056-1.621h-.025l-.248,1.621H173.4Z" transform="translate(-159.95 -432.4)" fill="#235971"/>
    </g>
  </g>
  <g id="Group_1900" data-name="Group 1900" transform="translate(18.333 20.197)">
    <path id="Path_9248" data-name="Path 9248" d="M272.614,432.4h1.6l-.714,4.516h-1.6Z" transform="translate(-271.9 -432.4)" fill="#459bbe"/>
    <path id="Path_9249" data-name="Path 9249" d="M320.589,432.4h2.256a1.92,1.92,0,0,1,2.087,2.33,2.516,2.516,0,0,1-2.5,2.211H319.9Zm1.472,3.46a1.208,1.208,0,0,0,1.324-1.18c.1-.59-.1-1.18-.932-1.18h-.441l-.367,2.38.416-.02Z" transform="translate(-317.52 -432.4)" fill="#459bbe"/>
  </g>
</svg>
