<svg xmlns="http://www.w3.org/2000/svg" width="59.636" height="67.241" viewBox="0 0 59.636 67.241">
  <g id="Group_1906" data-name="Group 1906" transform="translate(2341.458 -1101.78)">
    <path id="Path_9252" data-name="Path 9252" d="M-2302.993,1126.131a20.626,20.626,0,0,1-1.1,6.785,18.514,18.514,0,0,1-4.439,7.08,12.771,12.771,0,0,1-3.327,2.509c-.981.393-2.011,1.431-3.817,1.512-1.807-.081-2.837-1.119-3.818-1.512a10.1,10.1,0,0,1-2.281-1.537,18.574,18.574,0,0,1-5.689-8.632v-.008a20.873,20.873,0,0,1-.908-6.2c0-10.766,4.881-15.806,12.7-16.133C-2307.865,1110.325-2302.993,1115.365-2302.993,1126.131Z" fill="none" stroke="#707070" stroke-linecap="round" stroke-linejoin="round" stroke-width="1"/>
    <path id="Path_9253" data-name="Path 9253" d="M-2328.368,1126.706a5.619,5.619,0,0,0-2.117-.673c-3.008-.049-.409,4.137,1.324,6.009,1.66,1.814,1.693.4,1.693.294" fill="none" stroke="#707070" stroke-linecap="round" stroke-linejoin="round" stroke-width="1"/>
    <path id="Path_9254" data-name="Path 9254" d="M-2302.958,1126.706a5.612,5.612,0,0,1,2.116-.673c3.008-.049.409,4.137-1.324,6.009-1.66,1.814-1.692.4-1.692.294" fill="none" stroke="#707070" stroke-linecap="round" stroke-linejoin="round" stroke-width="1"/>
    <g id="Group_361" data-name="Group 361">
      <g id="Group_345" data-name="Group 345">
        <g id="Group_343" data-name="Group 343">
          <path id="Path_248" data-name="Path 248" d="M-2316.335,1101.78" fill="none" stroke="#707070" stroke-linecap="round" stroke-linejoin="round" stroke-width="1"/>
          <path id="Path_250" data-name="Path 250" d="M-2309.036,1140.762v5.466a2.1,2.1,0,0,1-.009.248,6.512,6.512,0,0,1-6.757,6.257,6.512,6.512,0,0,1-6.262-6.457v-5.219" fill="none" stroke="#707070" stroke-linecap="round" stroke-linejoin="round" stroke-width="1"/>
        </g>
        <g id="Group_344" data-name="Group 344">
          <path id="Path_252" data-name="Path 252" d="M-2301.736,1164.176h-39.222a26.137,26.137,0,0,1,18.9-17.891,6.514,6.514,0,0,0,6.571,6.457,6.514,6.514,0,0,0,6.452-6.265,25.921,25.921,0,0,1,8.053,3.776" fill="none" stroke="#707070" stroke-linecap="round" stroke-linejoin="round" stroke-width="1"/>
          <line id="Line_146" data-name="Line 146" y1="2.52" transform="translate(-2329.092 1161.656)" fill="none" stroke="#707070" stroke-linecap="round" stroke-linejoin="round" stroke-width="1"/>
          <line id="Line_147" data-name="Line 147" y1="2.52" transform="translate(-2302.261 1161.656)" fill="none" stroke="#707070" stroke-linecap="round" stroke-linejoin="round" stroke-width="1"/>
        </g>
      </g>
      <g id="Group_347" data-name="Group 347">
        <g id="Group_346" data-name="Group 346">
          <path id="Path_253" data-name="Path 253" d="M-2283.053,1156.97h-1.3a.758.758,0,0,1-.721-.52,7.75,7.75,0,0,0-.595-1.443.715.715,0,0,1,.135-.847l.937-.942a.714.714,0,0,0,.018-1.008l-.018-.018-1.26-1.26a.724.724,0,0,0-1.024-.011l-.011.011-.942.942a.712.712,0,0,1-.843.131,6.964,6.964,0,0,0-1.443-.595.742.742,0,0,1-.511-.717v-1.312a.73.73,0,0,0-.729-.731h-1.788a.726.726,0,0,0-.731.721v1.322a.746.746,0,0,1-.511.717,7.223,7.223,0,0,0-1.448.595.712.712,0,0,1-.843-.131l-.942-.942a.724.724,0,0,0-1.024-.011l-.011.011-1.1,1.106-.155.155a.722.722,0,0,0-.006,1.02l.006.006.942.942a.728.728,0,0,1,.136.848,7.545,7.545,0,0,0-.6,1.443.745.745,0,0,1-.712.52h-1.319a.73.73,0,0,0-.731.721v1.79a.734.734,0,0,0,.731.726h1.318a.741.741,0,0,1,.712.515,7.473,7.473,0,0,0,.6,1.448.72.72,0,0,1-.136.843l-.942.942a.716.716,0,0,0-.183.7.643.643,0,0,0,.183.328l1.255,1.26a.732.732,0,0,0,1.035,0l.942-.942a.707.707,0,0,1,.843-.136,7.528,7.528,0,0,0,1.448.6.736.736,0,0,1,.511.712v1.316a.728.728,0,0,0,.73.726h1.781a.731.731,0,0,0,.736-.726v-1.31a.733.733,0,0,1,.511-.712,7.254,7.254,0,0,0,1.443-.6.707.707,0,0,1,.843.136l.942.942a.731.731,0,0,0,1.035,0l1.26-1.26a.718.718,0,0,0,.016-1.015l-.016-.016-.937-.942a.708.708,0,0,1-.136-.843,7.7,7.7,0,0,0,.595-1.448.753.753,0,0,1,.721-.515h1.308a.728.728,0,0,0,.731-.725h0v-1.79a.724.724,0,0,0-.722-.726Zm-8.58,6.769a5.407,5.407,0,0,1-.623.042,5.232,5.232,0,0,1-5.272-5.192,5.234,5.234,0,0,1,5.193-5.272,5.232,5.232,0,0,1,5.271,5.192A5.232,5.232,0,0,1-2291.633,1163.739Z" fill="none" stroke="#707070" stroke-linecap="round" stroke-linejoin="round" stroke-width="1"/>
          <path id="Path_254" data-name="Path 254" d="M-2287.066,1158.587a5.184,5.184,0,0,1-4.568,5.153,5.407,5.407,0,0,1-.623.042,5.193,5.193,0,0,1-5.195-5.191,5.193,5.193,0,0,1,5.191-5.195,5.193,5.193,0,0,1,5.2,5.186Z" fill="none" stroke="#707070" stroke-linecap="round" stroke-linejoin="round" stroke-width="1"/>
        </g>
      </g>
    </g>
  </g>
</svg>
