<svg xmlns="http://www.w3.org/2000/svg" width="51.061" height="62.896" viewBox="0 0 51.061 62.896">
  <g id="Group_1908" data-name="Group 1908" transform="translate(1865.639 -1101.527)">
    <g id="Group_1907" data-name="Group 1907">
      <path id="Path_9255" data-name="Path 9255" d="M-1827.846,1126.206a20.6,20.6,0,0,1-1.1,6.785,18.5,18.5,0,0,1-4.438,7.079,12.8,12.8,0,0,1-3.327,2.51c-.981.392-2.011,1.43-3.818,1.512-1.807-.082-2.837-1.12-3.818-1.512a10.155,10.155,0,0,1-2.28-1.537,18.579,18.579,0,0,1-5.69-8.632v-.009a20.862,20.862,0,0,1-.907-6.2c0-10.766,4.88-15.807,12.7-16.134C-1832.718,1110.4-1827.846,1115.44-1827.846,1126.206Z" fill="none" stroke="#696969" stroke-linecap="round" stroke-linejoin="round" stroke-width="1"/>
      <path id="Path_9256" data-name="Path 9256" d="M-1853.221,1126.781a5.619,5.619,0,0,0-2.116-.673c-3.009-.049-.409,4.136,1.324,6.008,1.659,1.815,1.692.4,1.692.3" fill="none" stroke="#696969" stroke-linecap="round" stroke-linejoin="round" stroke-width="1"/>
      <path id="Path_9257" data-name="Path 9257" d="M-1827.811,1126.781a5.619,5.619,0,0,1,2.116-.673c3.009-.049.409,4.136-1.324,6.008-1.659,1.815-1.692.4-1.692.3" fill="none" stroke="#696969" stroke-linecap="round" stroke-linejoin="round" stroke-width="1"/>
    </g>
    <g id="Group_365" data-name="Group 365">
      <g id="Group_340" data-name="Group 340">
        <path id="Path_240" data-name="Path 240" d="M-1840.516,1101.527" fill="none" stroke="#696969" stroke-linecap="round" stroke-linejoin="round" stroke-width="1"/>
        <path id="Path_242" data-name="Path 242" d="M-1833.218,1140.129v5.846a2.023,2.023,0,0,1-.009.248,6.509,6.509,0,0,1-6.732,6.279,6.509,6.509,0,0,1-6.282-6.479v-4.662" fill="none" stroke="#696969" stroke-linecap="round" stroke-linejoin="round" stroke-width="1"/>
      </g>
      <g id="Group_341" data-name="Group 341">
        <path id="Path_244" data-name="Path 244" d="M-1815.078,1163.923h-50.061a26.148,26.148,0,0,1,18.9-17.891,6.518,6.518,0,0,0,6.593,6.44,6.517,6.517,0,0,0,6.435-6.248A26.182,26.182,0,0,1-1815.078,1163.923Z" fill="none" stroke="#696969" stroke-linecap="round" stroke-linejoin="round" stroke-width="1"/>
        <line id="Line_144" data-name="Line 144" y1="2.52" transform="translate(-1853.272 1161.403)" fill="none" stroke="#696969" stroke-linecap="round" stroke-linejoin="round" stroke-width="1"/>
        <line id="Line_145" data-name="Line 145" y1="2.52" transform="translate(-1826.441 1161.403)" fill="none" stroke="#696969" stroke-linecap="round" stroke-linejoin="round" stroke-width="1"/>
      </g>
    </g>
  </g>
</svg>
