<svg xmlns="http://www.w3.org/2000/svg" width="376.026" height="115.031" viewBox="0 0 376.026 115.031">
  <g id="Group_1905" data-name="Group 1905" transform="translate(-43.436 811.614)">
    <g id="Group_1903" data-name="Group 1903" transform="translate(43.436 -721.583)">
      <path id="Path_9250" data-name="Path 9250" d="M288.435-628.875c-2.263,2.231-2.111,4.843-.316,6.124,1.994,1.424,5.837-.049,7.517-3.513,1.409-2.9.443-4.479.443-4.479h-4.605s1.044-.694,1.044-3.02-4.653-3.136-4.653.378,10.318,9.891,12.407,11.093,4.89.475,5.159-.427c2.786,3.355-3.577,4.59-7.3,2.057-3.888-2.647-10.193-8.021-11.459-10.252s-.932-6.222,3.436-6.222,4.811,3.023,3.5,5.3c7.738,0,10.065-.585,10.982-3.561s-2.121-2.659-2.025-2.69c3.355-1.852,4.574.364,3.988,3.07s-5.491,4.511-8.815,4.447c.222,3.893-1.741,6.916-5.507,8.925s-6.947.482-7.469-2.6,3.924-5.609,3.924-5.609Z" transform="translate(-154.894 641.739)" fill="#fff"/>
      <text id="MALLING_" data-name="MALLING  " transform="translate(0 20)" fill="#fff" font-size="23" font-family="LibraSerifModern-Regular, Libra Serif Modern" letter-spacing="0.091em"><tspan x="0" y="0" xml:space="preserve">MALLING  </tspan></text>
      <text id="CO_INVESTMENTS" data-name="CO INVESTMENTS" transform="translate(160.026 20)" fill="#fff" font-size="23" font-family="LibraSerifModern-Regular, Libra Serif Modern" letter-spacing="0.062em"><tspan x="0" y="0">CO INVESTMENTS</tspan></text>
    </g>
    <g id="Group_1904" data-name="Group 1904" transform="translate(189.716 -811.614)">
      <path id="Path_9251" data-name="Path 9251" d="M403.151-767.623c-4.593,2.434-32,22.9-32.429,23.219,11.441-23.385,5.747-31.371-8.38-28.97,15.019-27.134-13.173-36.273-17.416-37.574s-11.725-.612-14.572,1.286-2.738,3.184-2.738,4.133,1.177.223,7.593-.84,17.477-.892,22.891,6.477,8.541,16.02-1.006,27.969c-29.2,14.179-37.4,25.345-39.97,29.7s-2.292,8.1,0,10.269,7.644,2.126,20.822-10.606a133.247,133.247,0,0,0,20.543-25.288c12.561-4.242,14.183,1.115,11.783,9.6a52.734,52.734,0,0,1-9.932,18.293A1.238,1.238,0,0,0,360.77-738c2.946,1.3,5.182.584,9.054-2.382,3.924-3.009,16.319-11.109,19.508-13.187a.249.249,0,0,1,.356.323c-7.232,14.815-3.673,16.319-.328,15.935,3.408-.389,6.9-1.927,10.834-4.745s5.006-3.526,4.574-4.357c-.389-.75-1.229.114-1.229.114-6.752,6.2-15.071,8.822-13.51,3.236s10.165-15.517,15.076-19.816S407.787-770.081,403.151-767.623ZM320.108-735.1c-3.436-1.476,3.013-11.474,12.561-18.255a107.4,107.4,0,0,1,18.251-10.463C333.338-741.049,323.429-733.68,320.108-735.1Z" transform="translate(-315.299 811.614)" fill="#fff"/>
    </g>
  </g>
</svg>
