<svg xmlns="http://www.w3.org/2000/svg" width="51.548" height="64.492" viewBox="0 0 51.548 64.492">
  <g id="Group_363" data-name="Group 363" transform="translate(0.5 0.524)">
    <g id="Group_349" data-name="Group 349">
      <path id="Path_255" data-name="Path 255" d="M64.19,75.353a20.4,20.4,0,0,1-1.1,6.741,18.437,18.437,0,0,1-4.408,7.036,12.585,12.585,0,0,1-3.307,2.492c-.974.389-2,1.424-3.795,1.5-1.794-.08-2.82-1.115-3.795-1.5A10.111,10.111,0,0,1,45.522,90.1a18.455,18.455,0,0,1-5.654-8.578v-.009a20.557,20.557,0,0,1-.89-5.579c-.009-.187-.009-.384-.009-.576,0-1.129.056-2.23.159-3.265h24.9C64.134,73.123,64.19,74.224,64.19,75.353Z" transform="translate(-26.441 -49.696)" fill="none" stroke="#707070" stroke-linecap="round" stroke-linejoin="round" stroke-width="1"/>
      <path id="Path_256" data-name="Path 256" d="M53.531,75.726v5.907a2.245,2.245,0,0,1-.009.253,6.58,6.58,0,0,1-13.155-.2V76.7a10.11,10.11,0,0,0,2.267,1.527c.974.389,2,1.419,3.795,1.5,1.794-.084,2.82-1.115,3.795-1.5A12.768,12.768,0,0,0,53.531,75.726Z" transform="translate(-21.286 -36.291)" fill="none" stroke="#707070" stroke-linecap="round" stroke-linejoin="round" stroke-width="1"/>
      <path id="Path_257" data-name="Path 257" d="M86.842,95.068H36.294A26.413,26.413,0,0,1,55.375,77a6.58,6.58,0,0,0,13.155.2A26.438,26.438,0,0,1,86.842,95.068Z" transform="translate(-36.294 -31.6)" fill="none" stroke="#707070" stroke-linecap="round" stroke-linejoin="round" stroke-width="1"/>
      <path id="Path_258" data-name="Path 258" d="M86.842,95.068H36.294A26.4,26.4,0,0,1,55.375,77a6.835,6.835,0,0,0,.239,1.7,6.417,6.417,0,0,0,1.41,2.591A6.572,6.572,0,0,0,68.529,77.2,26.373,26.373,0,0,1,86.842,95.068Z" transform="translate(-36.294 -31.6)" fill="none" stroke="#707070" stroke-linecap="round" stroke-linejoin="round" stroke-width="1"/>
      <path id="Path_259" data-name="Path 259" d="M41.7,73.439a5.623,5.623,0,0,0-2.1-.67c-2.989-.047-.4,4.113,1.316,5.973,1.649,1.8,1.682.4,1.682.3" transform="translate(-29.169 -47.21)" fill="none" stroke="#707070" stroke-linecap="round" stroke-linejoin="round" stroke-width="1"/>
      <path id="Path_260" data-name="Path 260" d="M45.064,73.439a5.623,5.623,0,0,1,2.1-.67c2.989-.047.408,4.113-1.316,5.973-1.649,1.8-1.682.4-1.682.3" transform="translate(-7.277 -47.21)" fill="none" stroke="#707070" stroke-linecap="round" stroke-linejoin="round" stroke-width="1"/>
      <line id="Line_148" data-name="Line 148" y1="2.545" transform="translate(11.982 60.923)" fill="none" stroke="#707070" stroke-linecap="round" stroke-linejoin="round" stroke-width="1"/>
      <line id="Line_149" data-name="Line 149" y1="2.545" transform="translate(39.076 60.923)" fill="none" stroke="#707070" stroke-linecap="round" stroke-linejoin="round" stroke-width="1"/>
      <path id="Path_261" data-name="Path 261" d="M38.931,71.614" transform="translate(-26.577 -51.442)" fill="none" stroke="#707070" stroke-linecap="round" stroke-linejoin="round" stroke-width="1"/>
      <path id="Path_262" data-name="Path 262" d="M50.543,75.193v9.871H41a18.141,18.141,0,0,1,1.223-3.111c-4.436-3.687-4.769-8.69-.468-14.518a.288.288,0,0,1,.5.267c-.97,2.881-2.1,8.376,2.647,10.138l.089.3A11.152,11.152,0,0,1,50.543,75.193Z" transform="translate(-27.424 -67.271)" fill="#fff" stroke="#707070" stroke-linecap="round" stroke-linejoin="round" stroke-width="1"/>
      <path id="Path_263" data-name="Path 263" d="M42.022,75.183v9.871h9.543a17.667,17.667,0,0,0-1.218-3.115c4.436-3.682,4.769-8.685.468-14.513a.288.288,0,0,0-.5.267c.97,2.876,2.1,8.372-2.647,10.138l-.089.29A11.145,11.145,0,0,0,42.022,75.183Z" transform="translate(-15.188 -67.308)" fill="#fff" stroke="#707070" stroke-linecap="round" stroke-linejoin="round" stroke-width="1"/>
    </g>
    <path id="Path_264" data-name="Path 264" d="M68.908,82.128v1.031a1.779,1.779,0,0,1-1.78,1.78H40.1a1.779,1.779,0,0,1-1.78-1.78V82.128A1.79,1.79,0,0,1,40.1,80.3h11.2V70.369a1.779,1.779,0,0,1,1.78-1.78H54.1a1.79,1.79,0,0,1,1.827,1.78V80.3h11.2A1.79,1.79,0,0,1,68.908,82.128Z" transform="translate(-28.84 -62.588)" fill="#fff" stroke="#707070" stroke-linecap="round" stroke-linejoin="round" stroke-width="1"/>
  </g>
</svg>
