<svg xmlns="http://www.w3.org/2000/svg" width="18.209" height="13.685" viewBox="0 0 18.209 13.685">
  <path id="mail" d="M2.067,9.435H16.142a2.069,2.069,0,0,0,2.067-2.067V-2.183A2.07,2.07,0,0,0,16.142-4.25H2.067A2.07,2.07,0,0,0,0-2.183V7.368A2.069,2.069,0,0,0,2.067,9.435Zm0-.616a1.442,1.442,0,0,1-.879-.3L5.4,4.217a.308.308,0,1,0-.44-.43L.787,8.051a1.445,1.445,0,0,1-.172-.684V-1.5L7.771,4.555a2.06,2.06,0,0,0,2.673,0L17.593-1.51V7.368a1.442,1.442,0,0,1-.173.686L13.226,3.785a.308.308,0,0,0-.439.432l4.232,4.306a1.442,1.442,0,0,1-.877.3Zm0-12.453H16.142a1.453,1.453,0,0,1,1.445,1.322l-7.541,6.4a1.447,1.447,0,0,1-1.877,0L.622-2.306A1.453,1.453,0,0,1,2.067-3.634Zm0,0" transform="translate(0 4.25)" fill="#b1b2b6" opacity="0.5"/>
</svg>
