<svg xmlns="http://www.w3.org/2000/svg" width="18.016" height="13.511" viewBox="0 0 18.016 13.511">
  <g id="visibility" transform="translate(0 -64.008)" opacity="0.5">
    <g id="Group_1875" data-name="Group 1875" transform="translate(6.775 68.531)">
      <g id="Group_1874" data-name="Group 1874" transform="translate(0 0)">
        <path id="Path_9227" data-name="Path 9227" d="M196.906,192.652a.375.375,0,1,0-.531.531,2.252,2.252,0,1,1-3.184,3.184.375.375,0,1,0-.531.531,3,3,0,1,0,4.246-4.246Z" transform="translate(-192.55 -192.542)" fill="#b1b2b6"/>
      </g>
    </g>
    <g id="Group_1877" data-name="Group 1877" transform="translate(6.005 67.761)">
      <g id="Group_1876" data-name="Group 1876" transform="translate(0 0)">
        <path id="Path_9228" data-name="Path 9228" d="M174.194,170.711a2.973,2.973,0,0,0-3.526,2.951,2.938,2.938,0,0,0,.053.523.376.376,0,0,0,.369.31.334.334,0,0,0,.066-.006.376.376,0,0,0,.3-.435,2.177,2.177,0,0,1-.041-.393,2.225,2.225,0,0,1,2.645-2.212.375.375,0,0,0,.131-.739Z" transform="translate(-170.668 -170.659)" fill="#b1b2b6"/>
      </g>
    </g>
    <g id="Group_1879" data-name="Group 1879" transform="translate(4.695 66.557)">
      <g id="Group_1878" data-name="Group 1878" transform="translate(0 0)">
        <path id="Path_9229" data-name="Path 9229" d="M146.667,140.425a18.233,18.233,0,0,0-4.916-3.921.376.376,0,0,0-.345.667,17.639,17.639,0,0,1,4.47,3.5c-.895.969-4.416,4.5-8.128,4.5a8.655,8.655,0,0,1-3.774-.9.375.375,0,1,0-.326.676,9.386,9.386,0,0,0,4.1.98c4.625,0,8.746-4.807,8.919-5.012A.375.375,0,0,0,146.667,140.425Z" transform="translate(-133.435 -136.461)" fill="#b1b2b6"/>
      </g>
    </g>
    <g id="Group_1881" data-name="Group 1881" transform="translate(0 65.509)">
      <g id="Group_1880" data-name="Group 1880" transform="translate(0 0)">
        <path id="Path_9230" data-name="Path 9230" d="M11.471,107.091a7.75,7.75,0,0,0-2.463-.432c-4.625,0-8.746,4.807-8.919,5.012a.375.375,0,0,0-.021.457,13.935,13.935,0,0,0,3.443,3.265.373.373,0,0,0,.519-.106.374.374,0,0,0-.105-.519A13.726,13.726,0,0,1,.86,111.934c.864-.938,4.409-4.524,8.148-4.524a7.026,7.026,0,0,1,2.223.393.37.37,0,0,0,.475-.236A.375.375,0,0,0,11.471,107.091Z" transform="translate(0 -106.659)" fill="#b1b2b6"/>
      </g>
    </g>
    <g id="Group_1883" data-name="Group 1883" transform="translate(2.251 64.008)">
      <g id="Group_1882" data-name="Group 1882" transform="translate(0 0)">
        <path id="Path_9231" data-name="Path 9231" d="M77.4,64.118a.376.376,0,0,0-.531,0L64.106,76.879a.375.375,0,0,0,.531.531L77.4,64.649A.376.376,0,0,0,77.4,64.118Z" transform="translate(-63.996 -64.008)" fill="#b1b2b6"/>
      </g>
    </g>
  </g>
</svg>
